#!OML:ASF I:\Actors\actors\Patient Classification 2\Patient 1\Session 1\actor1.ASF
:FULLY-SPECIFIED
:DEGREES
428
root -0.641187 18.7195 5.68557 3.34444 2.28976 -1.00388
lowerback 0.662888 3.33364 0.295346
upperback -0.421434 4.4538 0.681172
thorax -0.833835 2.22697 0.469624
lowerneck -10.9484 -7.3672 -7.86812
upperneck 21.144 -10.5001 7.97876
head 9.29426 -4.74719 2.80261
rclavicle 8.13278e-014 -3.18055e-015
rhumerus -15.1133 25.7871 -76.3572
rradius 91.2306
rwrist -35.1467
rhand -10.5293 -54.9082
rfingers 7.12502
rthumb 15.4739 275.691
lclavicle 8.13278e-014 -3.18055e-015
lhumerus -35.2892 -27.6934 104.292
lradius 104.994
lwrist 73.4187
lhand -16.3891 -12.0048
lfingers 7.12502
lthumb 9.82479 17.746
rfemur 0 0 0
rtibia 0
rfoot 0 0
rtoes 0
lfemur -6.95518 -8.44449 -13.0552
ltibia 21.7347
lfoot -22.7713 13.8699
ltoes -54.9576
429
root -0.643518 18.7222 5.66901 3.41943 2.24869 -1.46458
lowerback 0.688743 3.41866 0.777916
upperback -0.453343 4.57374 0.807542
thorax -0.854494 2.28443 0.327108
lowerneck -10.9634 -7.441 -7.9575
upperneck 21.1358 -10.6057 8.0704
head 9.31451 -4.79362 2.83382
rclavicle 1.84186e-014 -4.37326e-015
rhumerus -13.6921 24.8606 -75.7419
rradius 90.2554
rwrist -37.8446
rhand -9.72892 -55.5536
rfingers 7.12502
rthumb 16.2447 275.107
lclavicle 1.84186e-014 -4.37326e-015
lhumerus -35.2892 -27.7445 104.358
lradius 104.966
lwrist 73.4023
lhand -16.4352 -12.0518
lfingers 7.12502
lthumb 9.78032 17.7011
rfemur 0 0 0
rtibia 0
rfoot 0 0
rtoes 0
lfemur -7.14645 -8.52444 -12.5174
ltibia 21.8203
lfoot -22.8658 13.9811
ltoes -54.8742
430
root -0.64546 18.7252 5.65341 3.46574 2.25467 -1.93621
lowerback 0.744956 3.49289 1.28243
upperback -0.488914 4.68075 0.937944
thorax -0.893187 2.33496 0.174812
lowerneck -10.9195 -7.53183 -8.0325
upperneck 21.1167 -10.74 8.15642
head 9.32165 -4.85464 2.85887
rclavicle -9.47954e-015 -5.96354e-015
rhumerus -12.1408 23.7966 -75.1589
rradius 89.0291
rwrist -40.4322
rhand -8.89432 -55.9617
rfingers 7.12502
rthumb 17.0482 274.766
lclavicle -9.47954e-015 -5.96354e-015
lhumerus -35.3513 -27.8276 104.438
lradius 104.967
lwrist 73.36
lhand -16.5997 -12.0771
lfingers 7.12502
lthumb 9.62155 17.6832
rfemur 0 0 0
rtibia 0
rfoot 0 0
rtoes 0
lfemur -7.29525 -8.62399 -11.9662
ltibia 21.8657
lfoot -22.9166 14.0998
ltoes -54.9
431
root -0.645769 18.7235 5.64778 3.33827 2.47345 -1.53778
lowerback 0.87356 3.45994 0.908449
upperback -0.412847 4.63295 0.869523
thorax -0.911267 2.3132 0.306521
lowerneck -10.9487 -7.59987 -8.09612
upperneck 21.1103 -10.8227 8.16673
head 9.33707 -4.89605 2.8604
rclavicle -4.33599e-015 -1.11319e-014
rhumerus -10.4065 22.6502 -74.6036
rradius 87.5051
rwrist -42.7072
rhand -8.15048 -56.0288
rfingers 7.12502
rthumb 17.764 274.763
lclavicle -4.33599e-015 -1.11319e-014
lhumerus -35.4377 -27.8531 104.476
lradius 104.982
lwrist 73.265
lhand -16.581 -11.9951
lfingers 7.12502
lthumb 9.63959 17.7644
rfemur 0 0 0
rtibia 0
rfoot 0 0
rtoes 0
lfemur -7.23657 -8.65475 -12.4151
ltibia 21.8876
lfoot -22.7547 14.012
ltoes -55.1086
432
root -0.645862 18.7213 5.64034 3.20303 2.6833 -1.13845
lowerback 1.0181 3.43206 0.539993
upperback -0.321783 4.59124 0.81253
thorax -0.923001 2.29435 0.446521
lowerneck -10.9564 -7.65216 -8.18816
upperneck 21.0631 -10.8804 8.19861
head 9.33504 -4.92716 2.87794
rclavicle -7.67309e-014 -1.05356e-014
rhumerus -8.62131 21.4205 -74.0921
rradius 85.9208
rwrist -44.7811
rhand -7.60774 -56.2263
rfingers 7.12502
rthumb 18.2862 274.613
lclavicle -7.67309e-014 -1.05356e-014
lhumerus -35.4979 -27.888 104.522
lradius 105.006
lwrist 73.2795
lhand -16.5991 -11.8898
lfingers 7.12502
lthumb 9.62211 17.8705
rfemur 0 0 0
rtibia 0
rfoot 0 0
rtoes 0
lfemur -7.13147 -8.67981 -12.8641
ltibia 21.836
lfoot -22.6038 13.8728
ltoes -55.1882
433
root -0.64764 18.7226 5.62972 3.1831 2.73227 -1.1418
lowerback 1.07664 3.48304 0.567991
upperback -0.292407 4.66024 0.847711
thorax -0.92669 2.32876 0.462843
lowerneck -10.8849 -7.71337 -8.26902
upperneck 20.9848 -10.9564 8.23414
head 9.30873 -4.96834 2.89521
rclavicle 1.75179e-015 -3.77691e-015
rhumerus -6.88004 20.1207 -73.6863
rradius 84.3685
rwrist -46.9893
rhand -6.45922 -57.1417
rfingers 7.12502
rthumb 19.3909 273.805
lclavicle 1.75179e-015 -3.77691e-015
lhumerus -35.5762 -28.0023 104.612
lradius 105.011
lwrist 73.4111
lhand -16.7071 -11.9401
lfingers 7.12502
lthumb 9.51795 17.825
rfemur 0 0 0
rtibia 0
rfoot 0 0
rtoes 0
lfemur -7.09955 -8.7051 -12.848
ltibia 21.7146
lfoot -22.5075 13.8829
ltoes -55.1449
434
root -0.648636 18.7234 5.62074 3.19095 2.76052 -1.07574
lowerback 1.1158 3.54014 0.540615
upperback -0.27893 4.73632 0.853112
thorax -0.937829 2.36692 0.479871
lowerneck -10.8215 -7.80264 -8.34772
upperneck 20.9655 -11.0787 8.27629
head 9.30923 -5.02898 2.90794
rclavicle -1.46355e-014 -6.75868e-015
rhumerus -5.15652 18.8221 -73.4078
rradius 82.7571
rwrist -49.3577
rhand -4.04338 -59.0865
rfingers 7.12502
rthumb 21.7123 272.111
lclavicle -1.46355e-014 -6.75868e-015
lhumerus -35.672 -28.128 104.685
lradius 105.035
lwrist 73.4144
lhand -16.7273 -11.9962
lfingers 7.12502
lthumb 9.49842 17.7697
rfemur 0 0 0
rtibia 0
rfoot 0 0
rtoes 0
lfemur -7.11184 -8.67734 -12.9117
ltibia 21.6415
lfoot -22.3975 13.9096
ltoes -55.1424
435
root -0.649522 18.7234 5.61057 3.20427 2.78045 -1.03185
lowerback 1.17096 3.61591 0.540922
upperback -0.271287 4.83809 0.87516
thorax -0.96328 2.41778 0.496602
lowerneck -10.6987 -7.91702 -8.49053
upperneck 20.91 -11.2451 8.4045
head 9.29982 -5.10894 2.95656
rclavicle 9.88954e-015 -3.97569e-015
rhumerus -3.43889 17.5093 -73.1269
rradius 81.0907
rwrist -51.6771
rhand -4.39941 -58.1889
rfingers 7.12502
rthumb 21.3704 272.97
lclavicle 9.88954e-015 -3.97569e-015
lhumerus -35.7076 -28.2692 104.769
lradius 105.052
lwrist 73.3735
lhand -16.7359 -11.9001
lfingers 7.12502
lthumb 9.49019 17.8662
rfemur 0 0 0
rtibia 0
rfoot 0 0
rtoes 0
lfemur -7.16338 -8.63211 -12.9485
ltibia 21.6277
lfoot -22.3565 13.8726
ltoes -55.1381
436
root -0.652171 18.7245 5.60099 3.21077 2.79589 -1.06616
lowerback 1.23678 3.70673 0.601078
upperback -0.273899 4.96143 0.923742
thorax -1.00269 2.47912 0.505527
lowerneck -10.5515 -8.00323 -8.5597
upperneck 20.8358 -11.3685 8.45739
head 9.26623 -5.17173 2.97431
rclavicle -2.02636e-014 -3.97569e-015
rhumerus -1.73964 16.1329 -72.8919
rradius 79.3829
rwrist -53.7551
rhand -4.21978 -58.0967
rfingers 7.12502
rthumb 21.5429 273.081
lclavicle -2.02636e-014 -3.97569e-015
lhumerus -35.7468 -28.4282 104.861
lradius 105.016
lwrist 73.4367
lhand -16.6143 -11.7993
lfingers 7.12502
lthumb 9.60751 17.9616
rfemur 0 0 0
rtibia 0
rfoot 0 0
rtoes 0
lfemur -7.20554 -8.60954 -12.893
ltibia 21.6158
lfoot -22.3032 13.8262
ltoes -55.14
437
root -0.653675 18.7258 5.59126 3.17174 2.89039 -1.10164
lowerback 1.40954 3.75586 0.725537
upperback -0.292595 5.03164 0.938933
thorax -1.10953 2.51307 0.437573
lowerneck -10.5609 -8.07477 -8.46316
upperneck 20.9245 -11.461 8.31676
head 9.29271 -5.21899 2.8978
rclavicle 1.38777e-014 2.3059e-014
rhumerus -0.136502 14.7675 -72.8527
rradius 77.7237
rwrist -55.517
rhand -3.97961 -57.9534
rfingers 7.12502
rthumb 21.7735 273.251
lclavicle 1.38777e-014 2.3059e-014
lhumerus -35.8697 -28.565 104.904
lradius 104.972
lwrist 73.4818
lhand -16.3921 -11.9348
lfingers 7.12502
lthumb 9.82189 17.8161
rfemur 0 0 0
rtibia 0
rfoot 0 0
rtoes 0
lfemur -7.22502 -8.63131 -12.8424
ltibia 21.6145
lfoot -22.2152 13.7894
ltoes -55.2089
438
root -0.653833 18.7264 5.5815 3.14025 3.02576 -1.11641
lowerback 1.62716 3.78765 0.867838
upperback -0.327843 5.08048 0.94673
thorax -1.25592 2.5358 0.348501
lowerneck -10.6432 -8.15917 -8.47925
upperneck 21.0929 -11.5746 8.27354
head 9.37589 -5.27149 2.86692
rclavicle -4.64659e-014 -8.74653e-015
rhumerus 1.34526 13.4807 -72.8974
rradius 76.1755
rwrist -56.9615
rhand -3.67662 -57.5234
rfingers 7.12502
rthumb 22.0645 273.715
lclavicle -4.64659e-014 -8.74653e-015
lhumerus -35.9818 -28.674 104.98
lradius 104.935
lwrist 73.5035
lhand -16.3968 -12.0775
lfingers 7.12502
lthumb 9.81735 17.6736
rfemur 0 0 0
rtibia 0
rfoot 0 0
rtoes 0
lfemur -7.27148 -8.62535 -12.8122
ltibia 21.625
lfoot -22.1395 13.7114
ltoes -55.2491
439
root -0.654359 18.7274 5.57462 3.16299 3.07906 -1.10921
lowerback 1.75052 3.85568 0.952066
upperback -0.363429 5.17582 0.970091
thorax -1.35626 2.58231 0.312599
lowerneck -10.6258 -8.2503 -8.58301
upperneck 21.1781 -11.6989 8.309
head 9.42345 -5.33235 2.87915
rclavicle -1.23371e-014 -7.95139e-016
rhumerus 2.4978 12.0992 -73.08
rradius 75.0423
rwrist -57.7678
rhand -3.43138 -57.3726
rfingers 7.12502
rthumb 22.2999 273.894
lclavicle -1.23371e-014 -7.95139e-016
lhumerus -36.0455 -28.7403 105.059
lradius 104.924
lwrist 73.4215
lhand -16.4665 -11.8218
lfingers 7.12502
lthumb 9.75009 17.9325
rfemur 0 0 0
rtibia 0
rfoot 0 0
rtoes 0
lfemur -7.34117 -8.62199 -12.8083
ltibia 21.627
lfoot -22.0876 13.6964
ltoes -55.2017
440
root -0.655367 18.7283 5.56888 3.13556 3.10837 -1.0894
lowerback 1.88928 3.92794 1.01953
upperback -0.362767 5.27632 0.99154
thorax -1.42916 2.63159 0.283963
lowerneck -10.5511 -8.34218 -8.52142
upperneck 21.1743 -11.8087 8.1594
head 9.40487 -5.39535 2.80572
rclavicle 1.10996e-013 -3.18055e-015
rhumerus 3.35068 10.4898 -73.5607
rradius 74.149
rwrist -57.7902
rhand -3.29967 -57.545
rfingers 7.12502
rthumb 22.4263 273.737
lclavicle 1.10996e-013 -3.18055e-015
lhumerus -36.0921 -28.7844 105.054
lradius 104.944
lwrist 73.2237
lhand -16.3583 -11.4358
lfingers 7.12502
lthumb 9.85453 18.3135
rfemur 0 0 0
rtibia 0
rfoot 0 0
rtoes 0
lfemur -7.32806 -8.73201 -12.8328
ltibia 21.6154
lfoot -22.068 13.7577
ltoes -55.1646
441
root -0.655995 18.7288 5.56333 3.07724 3.17508 -1.06936
lowerback 2.06108 3.98477 1.10601
upperback -0.344585 5.35734 1.01775
thorax -1.50114 2.67093 0.248245
lowerneck -10.5277 -8.43238 -8.52843
upperneck 21.2058 -11.9216 8.09139
head 9.41826 -5.45479 2.76878
rclavicle -1.95306e-014 5.56597e-015
rhumerus 4.41227 8.72702 -74.2992
rradius 72.5766
rwrist -57.3646
rhand -2.71735 -57.4749
rfingers 7.12502
rthumb 22.9852 273.876
lclavicle -1.95306e-014 5.56597e-015
lhumerus -36.132 -28.8636 105.057
lradius 104.96
lwrist 73.1851
lhand -16.2835 -11.3392
lfingers 7.12502
lthumb 9.92665 18.4067
rfemur 0 0 0
rtibia 0
rfoot 0 0
rtoes 0
lfemur -7.28711 -8.84456 -12.8559
ltibia 21.6118
lfoot -22.0856 13.7465
ltoes -55.1649
442
root -0.656238 18.7294 5.5582 3.06494 3.23438 -1.06384
lowerback 2.20427 4.04954 1.20331
upperback -0.349444 5.44958 1.05061
thorax -1.58021 2.71567 0.213824
lowerneck -10.5558 -8.52539 -8.62862
upperneck 21.3129 -12.0527 8.14567
head 9.48394 -5.51465 2.78377
rclavicle -3.35449e-015 7.95139e-015
rhumerus 6.05858 8.50881 -73.5383
rradius 71.155
rwrist -58.8407
rhand -3.01884 -56.8959
rfingers 7.12502
rthumb 22.6959 274.419
lclavicle -3.35449e-015 7.95139e-015
lhumerus -36.2322 -28.9876 105.135
lradius 104.966
lwrist 73.3059
lhand -16.3262 -11.4777
lfingers 7.12502
lthumb 9.88547 18.2702
rfemur 0 0 0
rtibia 0
rfoot 0 0
rtoes 0
lfemur -7.30824 -8.90524 -12.8562
ltibia 21.622
lfoot -22.1111 13.7212
ltoes -55.1592
